<?xml version="1.0" encoding="UTF-8"?>
<svg width="30px" height="30px" viewBox="0 0 30 30" version="1.1" xmlns="http://www.w3.org/2000/svg" xmlns:xlink="http://www.w3.org/1999/xlink">
    <!-- Generator: Sketch 40.3 (33839) - http://www.bohemiancoding.com/sketch -->
    <title>087__chart</title>
    <desc>Created with Sketch.</desc>
    <defs></defs>
    <g id="Page-1" stroke="none" stroke-width="1" fill="none" fill-rule="evenodd">
        <g id="Artboard-Copy-9" transform="translate(-32.000000, -485.000000)" fill="#DE4465">
            <g id="Group-2" transform="translate(32.000000, 485.000000)">
                <g id="087__chart">
                    <g id="图层_1">
                        <g id="Group">
                            <g id="Shape">
                                <path d="M28.9130435,29.7826087 L1.08695652,29.7826087 C0.565217391,29.7826087 0.217391304,29.4347826 0.217391304,28.9130435 L0.217391304,1.08695652 C0.217391304,0.565217391 0.565217391,0.217391304 1.08695652,0.217391304 C1.60869565,0.217391304 1.95652174,0.565217391 1.95652174,1.08695652 L1.95652174,28.0434783 L28.9130435,28.0434783 C29.4347826,28.0434783 29.7826087,28.3913043 29.7826087,28.9130435 C29.7826087,29.4347826 29.4347826,29.7826087 28.9130435,29.7826087 L28.9130435,29.7826087 Z"></path>
                                <path d="M1.08695652,19.3478261 C0.739130435,19.3478261 0.565217391,19.173913 0.391304348,19 C0.0434782609,18.6521739 0.217391304,18.1304348 0.565217391,17.7826087 L7.34782609,12.7391304 C7.69565217,12.5652174 8.04347826,12.5652174 8.39130435,12.7391304 L15,16.7391304 L26.4782609,5.95652174 C26.826087,5.60869565 27.3478261,5.60869565 27.6956522,5.95652174 C28.0434783,6.30434783 28.0434783,6.82608696 27.6956522,7.17391304 L15.6956522,18.4782609 C15.3478261,18.826087 15,18.826087 14.6521739,18.6521739 L8.04347826,14.6521739 L1.7826087,19.3478261 L1.08695652,19.3478261 L1.08695652,19.3478261 Z"></path>
                            </g>
                            <path d="M8.73913043,28.9130435 L8.73913043,21.2608696 L7,21.2608696 L7,28.9130435 L5.26086957,28.9130435 L5.26086957,20.3913043 C5.26086957,19.8695652 5.60869565,19.5217391 6.13043478,19.5217391 L9.60869565,19.5217391 C10.1304348,19.5217391 10.4782609,19.8695652 10.4782609,20.3913043 L10.4782609,28.9130435 L8.73913043,28.9130435 L8.73913043,28.9130435 Z" id="Shape"></path>
                            <path d="M16.5652174,28.9130435 L16.5652174,24.2173913 L14.826087,24.2173913 L14.826087,28.9130435 L13.0869565,28.9130435 L13.0869565,23.3478261 C13.0869565,22.826087 13.4347826,22.4782609 13.9565217,22.4782609 L17.4347826,22.4782609 C17.9565217,22.4782609 18.3043478,22.826087 18.3043478,23.3478261 L18.3043478,28.9130435 L16.5652174,28.9130435 L16.5652174,28.9130435 Z" id="Shape"></path>
                            <path d="M24.3913043,28.9130435 L24.3913043,18.6521739 L22.6521739,18.6521739 L22.6521739,28.9130435 L20.9130435,28.9130435 L20.9130435,17.7826087 C20.9130435,17.2608696 21.2608696,16.9130435 21.7826087,16.9130435 L25.2608696,16.9130435 C25.7826087,16.9130435 26.1304348,17.2608696 26.1304348,17.7826087 L26.1304348,28.9130435 L24.3913043,28.9130435 L24.3913043,28.9130435 Z" id="Shape"></path>
                        </g>
                    </g>
                </g>
            </g>
        </g>
    </g>
</svg>