<?xml version="1.0" encoding="UTF-8"?>
<svg width="22px" height="22px" viewBox="0 0 22 22" version="1.1" xmlns="http://www.w3.org/2000/svg" xmlns:xlink="http://www.w3.org/1999/xlink">
    <!-- Generator: Sketch 43.1 (39012) - http://www.bohemiancoding.com/sketch -->
    <title>014__circle_arrow_down</title>
    <desc>Created with Sketch.</desc>
    <defs></defs>
    <g id="Page-1" stroke="none" stroke-width="1" fill="none" fill-rule="evenodd">
        <g id="Artboard-Copy-9" transform="translate(-251.000000, -300.000000)" fill="#FEFEFE">
            <g id="014__circle_arrow_down" transform="translate(262.000000, 311.000000) scale(1, -1) translate(-262.000000, -311.000000) translate(251.000000, 300.000000)">
                <g id="图层_1">
                    <g id="Group">
                        <path d="M11,21.3888889 C5.25555556,21.3888889 0.611111111,16.7444444 0.611111111,11 C0.611111111,5.25555556 5.25555556,0.611111111 11,0.611111111 C16.7444444,0.611111111 21.3888889,5.25555556 21.3888889,11 C21.3888889,16.7444444 16.7444444,21.3888889 11,21.3888889 L11,21.3888889 Z M11,1.83333333 C5.98888889,1.83333333 1.83333333,5.98888889 1.83333333,11 C1.83333333,16.0111111 5.98888889,20.1666667 11,20.1666667 C16.0111111,20.1666667 20.1666667,16.0111111 20.1666667,11 C20.1666667,5.98888889 16.0111111,1.83333333 11,1.83333333 L11,1.83333333 Z" id="Shape"></path>
                        <path d="M11,13.5666667 C10.6333333,13.5666667 10.1444444,13.4444444 9.9,13.0777778 L7.57777778,10.7555556 C7.33333333,10.5111111 7.33333333,10.1444444 7.57777778,9.9 C7.82222222,9.65555556 8.18888889,9.65555556 8.43333333,9.9 L10.7555556,12.2222222 C10.8777778,12.3444444 11.1222222,12.3444444 11.3666667,12.2222222 L13.6888889,9.9 C13.9333333,9.65555556 14.3,9.65555556 14.5444444,9.9 C14.7888889,10.1444444 14.7888889,10.5111111 14.5444444,10.7555556 L12.2222222,13.0777778 C11.8555556,13.3222222 11.3666667,13.5666667 11,13.5666667 L11,13.5666667 Z" id="Shape"></path>
                    </g>
                </g>
            </g>
        </g>
    </g>
</svg>