<?xml version="1.0" encoding="UTF-8"?>
<svg width="19px" height="25px" viewBox="0 0 19 25" version="1.1" xmlns="http://www.w3.org/2000/svg" xmlns:xlink="http://www.w3.org/1999/xlink">
    <!-- Generator: Sketch 40.3 (33839) - http://www.bohemiancoding.com/sketch -->
    <title>036__file_text</title>
    <desc>Created with Sketch.</desc>
    <defs></defs>
    <g id="Page-1" stroke="none" stroke-width="1" fill="none" fill-rule="evenodd">
        <g id="Artboard-Copy-9" transform="translate(-1247.000000, -179.000000)" fill="#DE4465">
            <g id="036__file_text" transform="translate(1247.000000, 179.000000)">
                <g id="图层_1">
                    <g id="Group">
                        <g id="Shape">
                            <path d="M15.4006211,24.4565217 L4.2001694,24.4565217 C2.24009034,24.4565217 0.700028233,22.9192547 0.700028233,20.9627329 L0.700028233,4.19254658 C0.700028233,2.23602484 2.24009034,0.698757764 4.2001694,0.698757764 L9.24037267,0.698757764 C9.80039526,0.698757764 10.3604178,0.97826087 10.7804348,1.25776398 L18.3407397,8.80434783 C18.7607566,9.22360248 18.9007623,9.7826087 18.9007623,10.3416149 L18.9007623,20.9627329 C18.9007623,22.9192547 17.3607002,24.4565217 15.4006211,24.4565217 L15.4006211,24.4565217 Z M4.2001694,2.09627329 C3.08012422,2.09627329 2.1000847,3.07453416 2.1000847,4.19254658 L2.1000847,20.9627329 C2.1000847,22.0807453 3.08012422,23.0590062 4.2001694,23.0590062 L15.4006211,23.0590062 C16.5206663,23.0590062 17.5007058,22.0807453 17.5007058,20.9627329 L17.5007058,10.3416149 C17.5007058,10.2018634 17.3607002,9.92236025 17.3607002,9.7826087 L9.80039526,2.23602484 C9.66038961,2.09627329 9.52038396,2.09627329 9.24037267,2.09627329 L4.2001694,2.09627329 L4.2001694,2.09627329 Z"></path>
                            <path d="M10.5004235,1.39751553 L10.5004235,6.98757764 C10.5004235,8.10559006 11.480463,9.08385093 12.6005082,9.08385093 L18.200734,9.08385093 L18.200734,10.4813665 L12.6005082,10.4813665 C10.6404291,10.4813665 9.10036702,8.94409938 9.10036702,6.98757764 L9.10036702,1.39751553 L10.5004235,1.39751553 L10.5004235,1.39751553 Z"></path>
                        </g>
                        <path d="M14.0005647,20.9627329 L5.60022586,20.9627329 C5.18020892,20.9627329 4.90019763,20.6832298 4.90019763,20.2639752 C4.90019763,19.8447205 5.18020892,19.5652174 5.60022586,19.5652174 L14.0005647,19.5652174 C14.4205816,19.5652174 14.7005929,19.8447205 14.7005929,20.2639752 C14.7005929,20.6832298 14.4205816,20.9627329 14.0005647,20.9627329 L14.0005647,20.9627329 Z" id="Shape"></path>
                        <path d="M14.0005647,17.4689441 L5.60022586,17.4689441 C5.18020892,17.4689441 4.90019763,17.189441 4.90019763,16.7701863 C4.90019763,16.3509317 5.18020892,16.0714286 5.60022586,16.0714286 L14.0005647,16.0714286 C14.4205816,16.0714286 14.7005929,16.3509317 14.7005929,16.7701863 C14.7005929,17.189441 14.4205816,17.4689441 14.0005647,17.4689441 L14.0005647,17.4689441 Z" id="Shape"></path>
                        <path d="M14.0005647,13.9751553 L5.60022586,13.9751553 C5.18020892,13.9751553 4.90019763,13.6956522 4.90019763,13.2763975 C4.90019763,12.8571429 5.18020892,12.5776398 5.60022586,12.5776398 L14.0005647,12.5776398 C14.4205816,12.5776398 14.7005929,12.8571429 14.7005929,13.2763975 C14.7005929,13.6956522 14.4205816,13.9751553 14.0005647,13.9751553 L14.0005647,13.9751553 Z" id="Shape"></path>
                    </g>
                </g>
            </g>
        </g>
    </g>
</svg>