<?xml version="1.0" encoding="UTF-8"?>
<svg width="28px" height="33px" viewBox="0 0 28 33" version="1.1" xmlns="http://www.w3.org/2000/svg" xmlns:xlink="http://www.w3.org/1999/xlink">
    <!-- Generator: Sketch 40.3 (33839) - http://www.bohemiancoding.com/sketch -->
    <title>103__user</title>
    <desc>Created with Sketch.</desc>
    <defs></defs>
    <g id="Page-1" stroke="none" stroke-width="1" fill="none" fill-rule="evenodd">
        <g id="Artboard-Copy-9" transform="translate(-33.000000, -222.000000)" fill="#D64263">
            <g id="Group-4" transform="translate(33.000000, 222.000000)">
                <g id="103__user">
                    <g id="图层_1">
                        <g id="Group">
                            <path d="M13.9142857,18.5751634 C9.35714286,18.5751634 5.62857143,14.4991087 5.62857143,9.4040404 C5.62857143,4.30897207 9.35714286,0.232917409 13.9142857,0.232917409 C18.4714286,0.232917409 22.2,4.30897207 22.2,9.4040404 C22.2,14.4991087 18.4714286,18.5751634 13.9142857,18.5751634 L13.9142857,18.5751634 Z M13.9142857,2.27094474 C10.3928571,2.27094474 7.7,5.53178847 7.7,9.4040404 C7.7,13.2762923 10.3928571,16.5371361 13.9142857,16.5371361 C17.4357143,16.5371361 20.1285714,13.2762923 20.1285714,9.4040404 C20.1285714,5.53178847 17.4357143,2.27094474 13.9142857,2.27094474 L13.9142857,2.27094474 Z" id="Shape"></path>
                            <path d="M26.3428571,32.4337493 C25.7214286,32.4337493 25.3071429,32.0261438 25.3071429,31.4147356 L25.3071429,24.4854427 C25.3071429,20.6131907 22.2,17.5561497 18.2642857,17.5561497 L17.6428571,17.5561497 C17.0214286,17.5561497 16.6071429,17.1485443 16.6071429,16.5371361 C16.6071429,15.9257279 17.0214286,15.5181224 17.6428571,15.5181224 L18.4714286,15.5181224 C23.4428571,15.5181224 27.5857143,19.5941771 27.5857143,24.4854427 L27.5857143,31.4147356 C27.3785714,32.0261438 26.9642857,32.4337493 26.3428571,32.4337493 L26.3428571,32.4337493 Z" id="Shape"></path>
                            <path d="M1.48571429,32.4337493 C0.864285714,32.4337493 0.45,32.0261438 0.45,31.4147356 L0.45,24.4854427 C0.45,19.5941771 4.59285714,15.5181224 9.56428571,15.5181224 L10.3928571,15.5181224 C11.0142857,15.5181224 11.4285714,15.9257279 11.4285714,16.5371361 C11.4285714,17.1485443 11.0142857,17.5561497 10.3928571,17.5561497 L9.56428571,17.5561497 C5.62857143,17.5561497 2.52142857,20.6131907 2.52142857,24.4854427 L2.52142857,31.4147356 C2.52142857,32.0261438 2.10714286,32.4337493 1.48571429,32.4337493 L1.48571429,32.4337493 Z" id="Shape"></path>
                        </g>
                    </g>
                </g>
            </g>
        </g>
    </g>
</svg>